# Blender v2.75 (sub 0) OBJ File: 'fishing_pole.blend'
# www.blender.org
mtllib fishing_pole.mtl
o Cylinder
v -0.000000 0.750000 -0.052431
v 0.037075 0.750000 -0.037075
v 0.052431 0.750000 0.000000
v 0.037075 0.750000 0.037075
v -0.000000 0.750000 0.052431
v -0.037075 0.750000 0.037075
v -0.052431 0.750000 -0.000000
v -0.037075 0.750000 -0.037075
v -0.000001 3.304574 -0.027667
v 0.019563 3.304574 -0.019564
v 0.027666 3.304574 0.000000
v 0.019563 3.304574 0.019564
v -0.000001 3.304574 0.027667
v -0.019564 3.304574 0.019564
v -0.027668 3.304574 -0.000000
v -0.019564 3.304574 -0.019564
v 0.025684 2.027287 0.025685
v -0.000000 2.027287 0.036324
v -0.036324 2.027287 -0.000000
v -0.025685 2.027287 -0.025685
v 0.025684 2.027287 -0.025685
v 0.036323 2.027287 0.000000
v -0.025685 2.027287 0.025685
v -0.000000 2.027287 -0.036324
v 0.000002 4.299064 -0.012666
v 0.008959 4.299064 -0.008956
v 0.012669 4.299064 0.000000
v 0.008959 4.299064 0.008956
v 0.000002 4.299064 0.012666
v -0.008954 4.299064 0.008956
v -0.012664 4.299064 -0.000000
v -0.008954 4.299064 -0.008956
v -0.000000 -0.172767 -0.057087
v 0.040367 -0.172767 -0.040367
v 0.057087 -0.172767 0.000000
v 0.040367 -0.172767 0.040367
v -0.000000 -0.172767 0.057087
v -0.040367 -0.172767 0.040367
v -0.057087 -0.172767 -0.000000
v -0.040367 -0.172767 -0.040367
v 0.040978 -0.343946 -0.040978
v 0.057951 -0.343946 0.000000
v 0.040978 -0.343946 0.040978
v -0.000000 -0.343946 0.057951
v -0.040978 -0.343946 0.040978
v -0.057951 -0.343946 -0.000000
v -0.040978 -0.343946 -0.040978
v -0.000000 -0.343946 -0.057951
v -0.000000 -0.185368 -0.079473
v 0.029294 -0.209020 -0.072537
v -0.029294 -0.209020 -0.072537
v 0.029533 -0.307219 -0.072925
v -0.029533 -0.307219 -0.072925
v -0.000000 -0.330867 -0.080134
v -0.000000 -0.219351 -0.126017
v 0.022262 -0.225652 -0.117865
v -0.022262 -0.225652 -0.117865
v 0.022401 -0.290141 -0.118125
v -0.022401 -0.290141 -0.118125
v -0.000000 -0.296407 -0.126357
v -0.000000 -0.218982 -0.206153
v 0.022262 -0.225283 -0.198001
v -0.022262 -0.225283 -0.198001
v 0.022401 -0.289772 -0.198262
v -0.022401 -0.289772 -0.198262
v -0.000000 -0.296038 -0.206493
v 0.104702 -0.099550 -0.242239
v 0.022445 -0.099550 -0.242239
v -0.012068 -0.228960 -0.165239
v 0.070190 -0.228960 -0.165239
v -0.012068 -0.236713 -0.183958
v 0.070190 -0.236713 -0.183958
v -0.012068 -0.255432 -0.191711
v 0.070190 -0.255432 -0.191711
v -0.012068 -0.274151 -0.183958
v 0.070190 -0.274151 -0.183958
v -0.012068 -0.281904 -0.165239
v 0.070190 -0.281904 -0.165239
v -0.012068 -0.274151 -0.146520
v 0.070190 -0.274151 -0.146520
v -0.012068 -0.255432 -0.138767
v 0.070190 -0.255432 -0.138767
v -0.012068 -0.236713 -0.146520
v 0.070190 -0.236713 -0.146520
v 0.022445 -0.107303 -0.260958
v 0.104702 -0.107303 -0.260958
v 0.022445 -0.126022 -0.268711
v 0.104702 -0.126022 -0.268711
v 0.022445 -0.144740 -0.260958
v 0.104702 -0.144740 -0.260958
v 0.022445 -0.152494 -0.242239
v 0.104702 -0.152494 -0.242239
v 0.022445 -0.144740 -0.223520
v 0.104702 -0.144740 -0.223520
v 0.022445 -0.126022 -0.215767
v 0.104702 -0.126022 -0.215767
v 0.022445 -0.107303 -0.223520
v 0.104702 -0.107303 -0.223520
v 0.056842 -0.185141 -0.184562
v 0.040941 -0.185141 -0.184562
v 0.040941 -0.148240 -0.213463
v 0.056842 -0.148240 -0.213463
v 0.040941 -0.138740 -0.234972
v 0.056842 -0.138740 -0.234972
v 0.040941 -0.162204 -0.236488
v 0.056842 -0.162204 -0.236488
v 0.040941 -0.204889 -0.217125
v 0.056842 -0.204889 -0.217125
v 0.040941 -0.241789 -0.188223
v 0.056842 -0.241789 -0.188223
v 0.040941 -0.251290 -0.166715
v 0.056842 -0.251290 -0.166715
v 0.040941 -0.227825 -0.165198
v 0.056842 -0.227825 -0.165198
v -0.000000 -0.835575 -0.047810
v 0.033807 -0.835575 -0.033807
v 0.047810 -0.835575 0.000000
v 0.033807 -0.835575 0.033807
v -0.000000 -0.835575 0.047810
v -0.033807 -0.835575 0.033807
v -0.047810 -0.835575 -0.000000
v -0.033807 -0.835575 -0.033807
v 0.032652 -0.343946 -0.032652
v 0.046177 -0.343946 0.000000
v 0.032652 -0.343946 0.032652
v -0.000000 -0.343946 0.046177
v -0.032652 -0.343946 0.032652
v -0.046177 -0.343946 -0.000000
v -0.032652 -0.343946 -0.032652
v -0.000000 -0.343946 -0.046177
vn 0.382700 0.004700 -0.923900
vn 0.923900 0.004700 -0.382700
vn 0.923900 0.004700 0.382700
vn 0.382700 0.004700 0.923900
vn -0.382700 0.004700 0.923900
vn -0.923900 0.004700 0.382700
vn 0.382700 0.006300 0.923900
vn -0.382700 0.004700 -0.923900
vn -0.923900 0.004700 -0.382700
vn -0.382600 0.013900 -0.923800
vn -0.923900 0.006300 -0.382700
vn 0.923900 0.006300 -0.382700
vn -0.382700 0.006300 0.923900
vn -0.382700 0.006300 -0.923900
vn 0.382700 0.006300 -0.923900
vn 0.923900 0.006300 0.382700
vn -0.923900 0.006300 0.382700
vn -0.923800 0.011600 0.382700
vn 0.923800 0.011700 0.382700
vn 0.382700 0.011700 -0.923800
vn -0.382700 0.011600 -0.923800
vn -0.382700 0.011600 0.923800
vn 0.923800 0.011700 -0.382700
vn -0.923800 0.011600 -0.382700
vn 0.382700 0.011700 0.923800
vn 0.000000 1.000000 0.000000
vn -0.923800 0.013900 0.382600
vn 0.382600 0.013900 0.923800
vn 0.923800 0.013900 -0.382600
vn -0.923800 0.013900 -0.382600
vn -0.382600 0.013900 0.923800
vn 0.923800 0.013900 0.382600
vn 0.382600 0.013900 -0.923800
vn -0.943500 0.004200 -0.331300
vn 0.432400 -0.616100 -0.658300
vn 0.000000 -1.000000 0.000000
vn -0.544100 0.716600 -0.436400
vn 0.988000 0.002900 -0.154600
vn -0.432800 0.626100 -0.648600
vn 0.943500 0.004200 -0.331300
vn -0.432400 -0.616100 -0.658300
vn 0.432800 0.626100 -0.648600
vn 0.270900 -0.962600 -0.004400
vn 0.270800 0.962600 0.004400
vn -0.542700 -0.712900 -0.444200
vn -0.988000 0.002900 -0.154600
vn 0.544100 0.716600 -0.436400
vn 0.542700 -0.712900 -0.444200
vn -0.344400 0.004300 -0.938800
vn 0.344400 0.004300 -0.938800
vn 1.000000 0.002200 0.000000
vn -0.270800 0.962600 0.004400
vn -0.270900 -0.962600 -0.004400
vn -1.000000 0.002200 0.000000
vn 0.000000 -0.413100 -0.910700
vn 0.000000 -0.382700 0.923900
vn 0.000000 0.923900 -0.382700
vn -1.000000 -0.000000 0.000000
vn -0.000000 -0.923900 0.382700
vn 0.000000 0.382700 -0.923900
vn 0.000000 -0.914700 -0.404000
vn 0.000000 -0.923900 -0.382700
vn 0.000000 -0.382700 -0.923900
vn 0.000000 0.382700 0.923900
vn 0.000000 0.923900 0.382700
vn 1.000000 0.000000 0.000000
vn 0.000000 -0.616600 -0.787300
vn 0.000000 0.064500 -0.997900
vn 0.000000 -0.064500 0.997900
vn 0.000000 0.914700 0.404100
vn 0.000000 0.413100 0.910700
vn 0.000000 0.616600 0.787300
vn 0.382700 0.003100 -0.923900
vn 0.923900 0.003100 -0.382700
vn 0.923900 0.003100 0.382700
vn 0.382700 0.003100 0.923900
vn -0.382700 0.003100 0.923900
vn -0.923900 0.003100 0.382700
vn -0.382700 0.003100 -0.923900
vn -0.923900 0.003100 -0.382700
usemtl None
s off
f 33//1 1//1 2//1 34//1
f 34//2 2//2 3//2 35//2
f 35//3 3//3 4//3 36//3
f 36//4 4//4 5//4 37//4
f 37//5 5//5 6//5 38//5
f 38//6 6//6 7//6 39//6
f 18//7 17//7 12//7 13//7
f 40//8 8//8 1//8 33//8
f 39//9 7//9 8//9 40//9
f 9//10 16//10 32//10 25//10
f 20//11 19//11 15//11 16//11
f 22//12 21//12 10//12 11//12
f 23//13 18//13 13//13 14//13
f 24//14 20//14 16//14 9//14
f 21//15 24//15 9//15 10//15
f 17//16 22//16 11//16 12//16
f 19//17 23//17 14//17 15//17
f 7//18 6//18 23//18 19//18
f 4//19 3//19 22//19 17//19
f 2//20 1//20 24//20 21//20
f 1//21 8//21 20//21 24//21
f 6//22 5//22 18//22 23//22
f 3//23 2//23 21//23 22//23
f 8//24 7//24 19//24 20//24
f 5//25 4//25 17//25 18//25
f 26//26 25//26 32//26 31//26 30//26 29//26 28//26 27//26
f 15//27 14//27 30//27 31//27
f 13//28 12//28 28//28 29//28
f 11//29 10//29 26//29 27//29
f 16//30 15//30 31//30 32//30
f 14//31 13//31 29//31 30//31
f 12//32 11//32 27//32 28//32
f 10//33 9//33 25//33 26//33
f 46//9 39//9 40//9 47//9
f 47//34 40//34 51//34 53//34
f 45//6 38//6 39//6 46//6
f 44//5 37//5 38//5 45//5
f 43//4 36//4 37//4 44//4
f 42//3 35//3 36//3 43//3
f 41//2 34//2 35//2 42//2
f 41//35 48//35 54//35 52//35
f 41//36 42//36 124//36 123//36
f 43//36 44//36 126//36 125//36
f 45//36 46//36 128//36 127//36
f 46//36 47//36 129//36 128//36
f 48//36 41//36 123//36 130//36
f 42//36 43//36 125//36 124//36
f 44//36 45//36 127//36 126//36
f 47//36 48//36 130//36 129//36
f 51//37 49//37 55//37 57//37
f 50//38 52//38 58//38 56//38
f 40//39 33//39 49//39 51//39
f 34//40 41//40 52//40 50//40
f 48//41 47//41 53//41 54//41
f 33//42 34//42 50//42 49//42
f 58//43 60//43 66//43 64//43
f 55//44 56//44 62//44 61//44
f 54//45 53//45 59//45 60//45
f 53//46 51//46 57//46 59//46
f 49//47 50//47 56//47 55//47
f 52//48 54//48 60//48 58//48
f 65//49 63//49 61//49 66//49
f 66//50 61//50 62//50 64//50
f 56//51 58//51 64//51 62//51
f 57//52 55//52 61//52 63//52
f 60//53 59//53 65//53 66//53
f 59//54 57//54 63//54 65//54
f 105//55 106//55 108//55 107//55
f 93//56 94//56 96//56 95//56
f 69//57 70//57 72//57 71//57
f 100//58 101//58 103//58 105//58 107//58 109//58 111//58 113//58
f 91//59 92//59 94//59 93//59
f 71//60 72//60 74//60 73//60
f 109//61 110//61 112//61 111//61
f 89//62 90//62 92//62 91//62
f 73//63 74//63 76//63 75//63
f 68//58 85//58 87//58 89//58 91//58 93//58 95//58 97//58
f 87//63 88//63 90//63 89//63
f 75//62 76//62 78//62 77//62
f 95//64 96//64 98//64 97//64
f 85//60 86//60 88//60 87//60
f 77//59 78//59 80//59 79//59
f 97//65 98//65 67//65 68//65
f 68//57 67//57 86//57 85//57
f 79//56 80//56 82//56 81//56
f 72//66 70//66 84//66 82//66 80//66 78//66 76//66 74//66
f 83//65 84//65 70//65 69//65
f 81//64 82//64 84//64 83//64
f 107//67 108//67 110//67 109//67
f 86//66 67//66 98//66 96//66 94//66 92//66 90//66 88//66
f 69//58 71//58 73//58 75//58 77//58 79//58 81//58 83//58
f 103//68 104//68 106//68 105//68
f 111//69 112//69 114//69 113//69
f 101//70 102//70 104//70 103//70
f 113//71 114//71 99//71 100//71
f 100//72 99//72 102//72 101//72
f 102//66 99//66 114//66 112//66 110//66 108//66 106//66 104//66
f 115//36 116//36 117//36 118//36 119//36 120//36 121//36 122//36
f 115//73 130//73 123//73 116//73
f 116//74 123//74 124//74 117//74
f 117//75 124//75 125//75 118//75
f 118//76 125//76 126//76 119//76
f 119//77 126//77 127//77 120//77
f 120//78 127//78 128//78 121//78
f 122//79 129//79 130//79 115//79
f 121//80 128//80 129//80 122//80
